<?xml version="1.0" encoding="UTF-8" standalone="yes"?>
<!-- Created with sK1/UniConvertor (http://sk1project.org/) -->
<svg xmlns="http://www.w3.org/2000/svg" xmlns:xlink="http://www.w3.org/1999/xlink"
  width="595.276pt" height="841.89pt" viewBox="0 0 595.276 841.89"
  fill-rule="evenodd">
<g>
<path style="stroke:none; fill:none" d="M 525.222 555.112C 528.791 555.069 533.432 556.838 534.333 559.112C 534.882 560.497 533.955 562.171 534.444 563.556C 534.97 565.043 536.004 566.209 536.333 568.223C 536.185 569.63 536.037 571.038 535.889 572.445C 536.224 573.885 538.615 575.616 537.889 577.89C 537.63 578.223 537.37 578.556 537.111 578.89C 536.963 579.742 536.815 580.594 536.667 581.445C 535.506 584.48 534.476 586.963 533.778 590.89C 531.571 591.56 529.683 591.961 526.889 592.334C 525.711 593.41 524.804 596.233 526.111 597.89C 529.399 602.057 533.52 605.03 535.778 610.334C 536.622 612.318 538.22 617.729 537.778 620.445C 537.585 621.631 536.907 622.478 536.667 623.445C 536.667 627.852 536.667 632.261 536.667 636.668C 538.852 642.895 544.969 647.975 549.222 652.334C 550.889 654.186 552.556 656.038 554.222 657.89C 556.927 659.818 559.656 661.4 561.556 664.112C 564.423 668.205 559.246 679.651 554.667 677.779C 554.593 677.705 554.518 677.63 554.444 677.556C 554.072 676.898 554.237 675.977 554.556 675.445C 554.37 675.371 554.185 675.297 554 675.223C 553.608 676.119 552.217 676.243 551.222 675.89C 551.222 675.445 551.222 675.001 551.222 674.556C 555.006 671.95 550.913 669.553 549.556 667.223C 549.333 665.89 549.111 664.556 548.889 663.223C 548.174 661.819 541.07 657.606 539.333 656.334C 538.327 655.597 537.444 654.088 536.111 653.779C 536.037 653.853 535.963 653.927 535.889 654.001C 535.683 656.043 533.347 664.108 533.556 664.779C 534.518 666.186 535.482 667.594 536.444 669.001C 537.852 671.593 539.259 674.186 540.667 676.779C 544.041 684.592 545.162 693.746 547.778 702.112C 549.463 707.501 552.793 711.379 553.778 717.112C 553.741 720.112 553.704 723.112 553.667 726.112C 554.148 731.593 554.63 737.075 555.111 742.556C 555.111 744.89 555.111 747.223 555.111 749.556C 555.11 756.819 555.98 761.792 559.333 765.556C 562.992 769.663 567.705 770.907 574.556 772.001C 577.555 771.742 580.556 771.482 583.556 771.223C 583.593 772.334 583.63 773.445 583.667 774.556C 583.237 776.184 582.132 776.32 581 777.223C 575.616 781.518 568.218 780.349 560 781.779C 556.83 782.33 550.188 784.239 547.667 782.001C 546.507 780.972 547.127 777.939 546.778 776.112C 545.801 771.002 545.857 765.429 544 761.223C 542.741 759.112 541.481 757.001 540.222 754.89C 537.041 749.116 534.98 742.819 533.667 735.334C 532.763 730.184 537.991 724.603 535.889 720.334C 535.006 718.541 533.234 717.148 532 715.668C 528.77 711.791 524.674 708.476 522 704.112C 521.778 704.149 521.555 704.186 521.333 704.223C 519.556 707.778 517.778 711.335 516 714.89C 515.185 716.26 514.37 717.631 513.556 719.001C 513.482 719.853 513.407 720.705 513.333 721.556C 512.954 723.461 512.298 725.212 511.333 726.556C 509.738 728.779 506.905 730.295 504.778 732.001C 500.319 735.576 496.579 740.759 493 745.223C 489.669 749.377 485.683 753.045 482.333 757.223C 481.305 758.506 477.843 761.008 477.556 762.556C 476.923 765.964 478.54 773.633 480.111 774.89C 481.779 776.224 486.61 778.18 487.444 779.89C 488.032 780.969 487.367 782.808 486.889 783.556C 481.745 783.585 476.324 781.295 473.333 778.89C 472.519 777.964 471.704 777.038 470.889 776.112C 469.363 774.949 467.183 775.144 464.889 774.668C 462.094 774.087 458.764 771.396 458.111 768.668C 457.594 766.503 459.02 764.94 459.889 763.779C 462.557 760.211 466.195 757.39 468.889 753.779C 471.243 750.621 473.825 747.112 475.333 743.223C 475.741 741.334 476.148 739.445 476.556 737.556C 477.385 734.553 478.768 731.486 480.444 729.223C 483.402 725.231 488.522 722.269 492.444 719.223C 493.518 718.408 494.593 717.593 495.667 716.779C 496.855 715.115 497.365 703.936 497.889 701.001C 498.082 699.917 498.863 696.04 498.444 695.556C 497.815 695.445 497.185 695.334 496.556 695.223C 496.222 694.816 495.889 694.408 495.556 694.001C 494.311 693.26 492.504 693.347 491.333 692.668C 488.787 683.461 493.186 674.75 494.444 667.001C 494.333 660.705 494.222 654.408 494.111 648.112C 494.785 643.979 495.731 640.443 496.556 636.89C 496.815 634.297 497.074 631.704 497.333 629.112C 497.333 627.445 497.333 625.778 497.333 624.112C 497.333 616.618 495.525 609.154 497.444 602.89C 499.164 597.278 503.891 595.321 507.889 592.001C 508.444 591.038 509 590.075 509.556 589.112C 508.741 588.964 507.926 588.816 507.111 588.668C 506.25 588.105 502.627 582.963 503.222 581.445C 504.176 579.014 506.245 578.363 506.889 574.779C 507.741 570.036 505.541 564.825 508 561.556C 508.667 561.038 509.333 560.519 510 560.001C 511.443 558.905 512.979 557.753 514.889 557.112C 518.302 555.966 522.06 556.407 525.222 555.112z"/>
</g>
</svg>