<svg width="244" height="244" viewBox="0 0 244 244" fill="none" xmlns="http://www.w3.org/2000/svg">
<circle cx="121.938" cy="122.227" r="119" fill="black" stroke="#00A66A" stroke-width="5"/>
<path d="M74.8024 57.885C74.8024 55.6192 75.5355 53.6866 77.0016 52.0872C78.601 50.3545 80.6668 49.4882 83.1992 49.4882H173.364C175.897 49.4882 177.896 50.3545 179.362 52.0872C180.961 53.6866 181.761 55.6192 181.761 57.885C181.761 60.1507 180.961 62.15 179.362 63.8826C177.896 65.6153 175.897 66.4816 173.364 66.4816H91.5959V197.831C91.5959 200.097 90.7296 202.096 88.9969 203.828C87.3976 205.428 85.465 206.227 83.1992 206.227C80.6668 206.227 78.601 205.428 77.0016 203.828C75.5355 202.096 74.8024 200.097 74.8024 197.831V57.885ZM104.191 128.458C101.925 128.458 99.926 127.591 98.1934 125.859C96.594 124.126 95.7943 122.127 95.7943 119.861C95.7943 117.595 96.594 115.663 98.1934 114.063C99.926 112.331 101.925 111.464 104.191 111.464H141.177C143.443 111.464 145.375 112.331 146.974 114.063C148.707 115.663 149.573 117.595 149.573 119.861C149.573 122.127 148.707 124.126 146.974 125.859C145.375 127.591 143.443 128.458 141.177 128.458H104.191Z" fill="#00A66A"/>
</svg>
