<svg width="239" height="239" viewBox="0 0 239 239" fill="none" xmlns="http://www.w3.org/2000/svg">
<circle cx="119.938" cy="119.227" r="119" fill="#00A66A"/>
<path d="M72.8024 54.885C72.8024 52.6192 73.5355 50.6866 75.0016 49.0872C76.601 47.3545 78.6668 46.4882 81.1992 46.4882H171.364C173.897 46.4882 175.896 47.3545 177.362 49.0872C178.961 50.6866 179.761 52.6192 179.761 54.885C179.761 57.1507 178.961 59.15 177.362 60.8826C175.896 62.6153 173.897 63.4816 171.364 63.4816H89.5959V194.831C89.5959 197.097 88.7296 199.096 86.9969 200.828C85.3976 202.428 83.465 203.227 81.1992 203.227C78.6668 203.227 76.601 202.428 75.0016 200.828C73.5355 199.096 72.8024 197.097 72.8024 194.831V54.885ZM102.191 125.458C99.9253 125.458 97.926 124.591 96.1934 122.859C94.594 121.126 93.7943 119.127 93.7943 116.861C93.7943 114.595 94.594 112.663 96.1934 111.063C97.926 109.331 99.9253 108.464 102.191 108.464H139.177C141.443 108.464 143.375 109.331 144.974 111.063C146.707 112.663 147.573 114.595 147.573 116.861C147.573 119.127 146.707 121.126 144.974 122.859C143.375 124.591 141.443 125.458 139.177 125.458H102.191Z" fill="white"/>
</svg>
