<svg width="18" height="16" viewBox="0 0 18 16" fill="none" xmlns="http://www.w3.org/2000/svg">
<path d="M1.4 14.9321C1.06667 15.0655 0.75 15.0361 0.45 14.8441C0.15 14.6528 0 14.3738 0 14.0071V10.2821C0 10.0488 0.0666667 9.84047 0.2 9.65714C0.333333 9.4738 0.516667 9.35714 0.75 9.30714L8 7.50714L0.75 5.70714C0.516667 5.65714 0.333333 5.54047 0.2 5.35714C0.0666667 5.1738 0 4.96547 0 4.73214V1.00714C0 0.640469 0.15 0.361136 0.45 0.169136C0.75 -0.0221976 1.06667 -0.0511979 1.4 0.0821354L16.8 6.58214C17.2167 6.76547 17.425 7.0738 17.425 7.50714C17.425 7.94047 17.2167 8.2488 16.8 8.43214L1.4 14.9321Z" fill="#04A56A"/>
</svg>
