<svg width="23" height="41" viewBox="0 0 23 41" fill="none" xmlns="http://www.w3.org/2000/svg">
<path d="M4.5576 1.29155L22.417 19.0224C22.629 19.2335 22.7788 19.4622 22.8664 19.7084C22.9555 19.9547 23 20.2186 23 20.5C23 20.7814 22.9555 21.0453 22.8664 21.2916C22.7788 21.5378 22.629 21.7665 22.417 21.9776L4.55761 39.7612C4.06298 40.2537 3.4447 40.5 2.70277 40.5C1.96083 40.5 1.32489 40.2361 0.794935 39.7084C0.264982 39.1807 3.64554e-06 38.5651 3.58403e-06 37.8615C3.52252e-06 37.1579 0.264982 36.5422 0.794935 36.0145L16.3756 20.5L0.794932 4.98548C0.300309 4.49296 0.0529963 3.88645 0.0529962 3.16596C0.0529962 2.44406 0.317973 1.81926 0.847927 1.29155C1.37788 0.763849 1.99616 0.499998 2.70276 0.499998C3.40937 0.499998 4.02765 0.763849 4.5576 1.29155Z" fill="black"/>
</svg>
