<svg width="44" height="40" viewBox="0 0 44 40" fill="none" xmlns="http://www.w3.org/2000/svg">
<path d="M21.6875 0.625C33.5469 0.625 43.25 8.5 43.25 18.125C43.25 22.9375 40.8781 27.3125 37.2125 30.1562C37.2125 31.4688 38.075 34.9687 43.25 40C38.075 39.7813 33.3313 37.8125 29.2344 34.5312C26.8625 35.1875 24.275 35.625 21.6875 35.625C9.82812 35.625 0.125 27.75 0.125 18.125C0.125 8.5 9.82812 0.625 21.6875 0.625ZM21.6875 31.25C31.175 31.25 38.9375 25.3438 38.9375 18.125C38.9375 10.9062 31.175 5 21.6875 5C12.2 5 4.4375 10.9062 4.4375 18.125C4.4375 25.3438 12.2 31.25 21.6875 31.25Z" fill="white" fill-opacity="0.8"/>
<path d="M17.8439 9.375C18.9376 8.71875 20.4689 8.28125 22.4376 8.28125C24.4064 8.28125 26.1564 8.71875 27.0314 9.375C28.1251 10.25 28.7814 11.5625 28.7814 13.0937C28.7814 13.9687 28.5626 14.8437 27.9064 15.7187C27.2501 16.5937 26.5939 17.25 25.5001 17.6875C25.0626 18.125 24.6251 18.3438 24.4064 18.7813C24.4064 19.2188 24.1876 19.6563 24.1876 20.3125H19.8126C19.8126 19.2188 20.0314 18.5625 20.9064 17.9062C21.3439 17.4687 22.2189 16.8125 23.3126 16.1563C23.7501 15.9375 24.1876 15.5 24.6251 15.0625C24.8439 14.625 25.0626 14.1875 25.0626 13.5312C25.0626 12.875 24.8439 12.4375 24.4064 12C23.9689 11.5625 23.3126 11.3437 22.6564 11.3437C22.0001 11.3437 21.5626 11.5625 21.1251 11.7813C20.6876 12 20.4689 12.4375 20.4689 13.0937H16.0939C15.8751 11.5625 16.5314 10.25 17.8439 9.375Z" fill="white" fill-opacity="0.8"/>
<path d="M19.8126 26.875V22.5H24.1876V26.875H19.8126Z" fill="white" fill-opacity="0.8"/>
</svg>
