<svg width="45" height="46" viewBox="0 0 45 46" fill="none" xmlns="http://www.w3.org/2000/svg">
<path d="M14.625 3.83325H30.375C36.375 3.83325 41.25 8.81659 41.25 14.9499V31.0499C41.25 33.9982 40.1043 36.8258 38.0648 38.9106C36.0253 40.9954 33.2592 42.1666 30.375 42.1666H14.625C8.625 42.1666 3.75 37.1833 3.75 31.0499V14.9499C3.75 12.0016 4.89576 9.17403 6.93521 7.08925C8.97467 5.00447 11.7408 3.83325 14.625 3.83325ZM14.25 7.66659C12.4598 7.66659 10.7429 8.39355 9.47703 9.68755C8.21116 10.9816 7.5 12.7366 7.5 14.5666V31.4333C7.5 35.2474 10.5188 38.3333 14.25 38.3333H30.75C32.5402 38.3333 34.2571 37.6063 35.523 36.3123C36.7888 35.0183 37.5 33.2632 37.5 31.4333V14.5666C37.5 10.7524 34.4813 7.66659 30.75 7.66659H14.25ZM32.3438 10.5416C32.9654 10.5416 33.5615 10.794 34.001 11.2433C34.4406 11.6926 34.6875 12.302 34.6875 12.9374C34.6875 13.5728 34.4406 14.1822 34.001 14.6315C33.5615 15.0808 32.9654 15.3333 32.3438 15.3333C31.7222 15.3333 31.126 15.0808 30.6865 14.6315C30.2469 14.1822 30 13.5728 30 12.9374C30 12.302 30.2469 11.6926 30.6865 11.2433C31.126 10.794 31.7222 10.5416 32.3438 10.5416ZM22.5 13.4166C24.9864 13.4166 27.371 14.4263 29.1291 16.2235C30.8873 18.0207 31.875 20.4583 31.875 22.9999C31.875 25.5416 30.8873 27.9791 29.1291 29.7764C27.371 31.5736 24.9864 32.5833 22.5 32.5833C20.0136 32.5833 17.629 31.5736 15.8709 29.7764C14.1127 27.9791 13.125 25.5416 13.125 22.9999C13.125 20.4583 14.1127 18.0207 15.8709 16.2235C17.629 14.4263 20.0136 13.4166 22.5 13.4166ZM22.5 17.2499C21.0082 17.2499 19.5774 17.8557 18.5225 18.9341C17.4676 20.0124 16.875 21.4749 16.875 22.9999C16.875 24.5249 17.4676 25.9874 18.5225 27.0658C19.5774 28.1441 21.0082 28.7499 22.5 28.7499C23.9918 28.7499 25.4226 28.1441 26.4775 27.0658C27.5324 25.9874 28.125 24.5249 28.125 22.9999C28.125 21.4749 27.5324 20.0124 26.4775 18.9341C25.4226 17.8557 23.9918 17.2499 22.5 17.2499Z" fill="#00A66A"/>
</svg>
