<svg width="28" height="48" viewBox="0 0 28 48" fill="none" xmlns="http://www.w3.org/2000/svg">
<path id="Vector" d="M5.375 1.21655L26.4375 22.2166C26.6875 22.4666 26.8642 22.7374 26.9675 23.0291C27.0725 23.3207 27.125 23.6332 27.125 23.9666C27.125 24.2999 27.0725 24.6124 26.9675 24.9041C26.8642 25.1957 26.6875 25.4666 26.4375 25.7166L5.375 46.7791C4.79167 47.3624 4.0625 47.6541 3.1875 47.6541C2.3125 47.6541 1.5625 47.3416 0.937502 46.7166C0.312502 46.0916 1.707e-06 45.3624 1.63415e-06 44.5291C1.5613e-06 43.6957 0.312501 42.9666 0.937501 42.3416L19.3125 23.9666L0.937498 5.59156C0.354164 5.00822 0.0624962 4.28989 0.0624961 3.43656C0.0624961 2.58155 0.374996 1.84156 0.999996 1.21656C1.625 0.591555 2.35416 0.279055 3.1875 0.279055C4.02083 0.279055 4.75 0.591555 5.375 1.21655Z" fill="black"/>
</svg>
