<svg width="24" height="41" viewBox="0 0 24 41" fill="none" xmlns="http://www.w3.org/2000/svg">
<path d="M19.2442 40.1887L0.608295 22.0145C0.387097 21.7982 0.230783 21.5638 0.139355 21.3113C0.0464516 21.0589 0 20.7885 0 20.5C0 20.2115 0.0464516 19.9411 0.139355 19.6887C0.230783 19.4362 0.387097 19.2018 0.608295 18.9855L19.2442 0.757256C19.7604 0.252418 20.4055 0 21.1797 0C21.9539 0 22.6175 0.270449 23.1705 0.811346C23.7235 1.35224 24 1.98329 24 2.70449C24 3.42568 23.7235 4.05673 23.1705 4.59763L6.91244 20.5L23.1705 36.4024C23.6866 36.9072 23.9447 37.5289 23.9447 38.2674C23.9447 39.0073 23.6682 39.6478 23.1152 40.1887C22.5622 40.7295 21.9171 41 21.1797 41C20.4424 41 19.7972 40.7295 19.2442 40.1887Z" fill="black"/>
</svg>
