<svg width="20" height="24" viewBox="0 0 20 24" fill="none" xmlns="http://www.w3.org/2000/svg">
<path d="M7.5 11.251H6V9.75098H7.5V11.251ZM13.5 11.251H12V9.75098H13.5V11.251ZM19.5 9.75098V12.751H18V16.501C18 16.8135 17.9414 17.1064 17.8242 17.3799C17.707 17.6533 17.5469 17.8916 17.3438 18.0947C17.1406 18.2979 16.9023 18.458 16.6289 18.5752C16.3555 18.6924 16.0625 18.751 15.75 18.751H12.6562L7.5 23.1572V18.751H3.75C3.4375 18.751 3.14453 18.6924 2.87109 18.5752C2.59766 18.458 2.35938 18.2979 2.15625 18.0947C1.95312 17.8916 1.79297 17.6533 1.67578 17.3799C1.55859 17.1064 1.5 16.8135 1.5 16.501V12.751H0V9.75098H1.5V7.50098C1.5 7.18848 1.55859 6.89551 1.67578 6.62207C1.79297 6.34863 1.95312 6.11035 2.15625 5.90723C2.35938 5.7041 2.59766 5.54395 2.87109 5.42676C3.14453 5.30957 3.4375 5.25098 3.75 5.25098H9V2.80176C8.77344 2.66895 8.59375 2.48535 8.46094 2.25098C8.32813 2.0166 8.25781 1.7666 8.25 1.50098C8.25 1.29004 8.28906 1.09473 8.36719 0.915039C8.44531 0.735352 8.55078 0.579102 8.68359 0.446289C8.81641 0.313477 8.97656 0.204102 9.16406 0.118164C9.35156 0.0322266 9.54687 -0.00683594 9.75 0.000976563C9.96094 0.000976563 10.1563 0.0400391 10.3359 0.118164C10.5156 0.196289 10.6719 0.301758 10.8047 0.43457C10.9375 0.567383 11.0469 0.727539 11.1328 0.915039C11.2188 1.10254 11.2578 1.29785 11.25 1.50098C11.25 1.7666 11.1836 2.0166 11.0508 2.25098C10.918 2.48535 10.7344 2.66895 10.5 2.80176V5.25098H15.75C16.0625 5.25098 16.3555 5.30957 16.6289 5.42676C16.9023 5.54395 17.1406 5.7041 17.3438 5.90723C17.5469 6.11035 17.707 6.34863 17.8242 6.62207C17.9414 6.89551 18 7.18848 18 7.50098V9.75098H19.5ZM16.5 7.50098C16.5 7.29785 16.4258 7.12207 16.2773 6.97363C16.1289 6.8252 15.9531 6.75098 15.75 6.75098H3.75C3.54687 6.75098 3.37109 6.8252 3.22266 6.97363C3.07422 7.12207 3 7.29785 3 7.50098V16.501C3 16.7041 3.07422 16.8799 3.22266 17.0283C3.37109 17.1768 3.54687 17.251 3.75 17.251H9V19.8994L12.0938 17.251H15.75C15.9531 17.251 16.1289 17.1768 16.2773 17.0283C16.4258 16.8799 16.5 16.7041 16.5 16.501V7.50098ZM6.52734 12.915C6.95703 13.3447 7.44922 13.6729 8.00391 13.8994C8.55859 14.126 9.14062 14.2432 9.75 14.251C10.3594 14.251 10.9414 14.1377 11.4961 13.9111C12.0508 13.6846 12.543 13.3525 12.9727 12.915L14.0273 13.9814C13.457 14.5518 12.8047 14.9893 12.0703 15.2939C11.3359 15.5986 10.5625 15.751 9.75 15.751C8.94531 15.751 8.17578 15.5986 7.44141 15.2939C6.70703 14.9893 6.05078 14.5518 5.47266 13.9814L6.52734 12.915Z" fill="white"/>
</svg>
