<svg width="42" height="24" viewBox="0 0 42 24" fill="none" xmlns="http://www.w3.org/2000/svg">
<path d="M40.6887 4.75576L22.5145 23.3917C22.2982 23.6129 22.0638 23.7692 21.8113 23.8606C21.5589 23.9535 21.2885 24 21 24C20.7115 24 20.4411 23.9535 20.1887 23.8606C19.9362 23.7692 19.7018 23.6129 19.4855 23.3917L1.25726 4.75576C0.752418 4.23963 0.5 3.59447 0.5 2.82027C0.5 2.04608 0.770449 1.38249 1.31135 0.829493C1.85224 0.276497 2.48329 -1.90735e-06 3.20449 -1.90735e-06C3.92568 -1.90735e-06 4.55673 0.276497 5.09763 0.829493L21 17.0876L36.9024 0.829493C37.4072 0.313363 38.0289 0.0552979 38.7674 0.0552979C39.5073 0.0552979 40.1478 0.331795 40.6887 0.88479C41.2296 1.43779 41.5 2.08295 41.5 2.82027C41.5 3.5576 41.2296 4.20276 40.6887 4.75576V4.75576Z" fill="black"/>
</svg>
