<svg width="45" height="46" viewBox="0 0 45 46" fill="none" xmlns="http://www.w3.org/2000/svg">
<path d="M42.1127 11.5001C40.6689 12.1709 39.1127 12.6117 37.5002 12.8226C39.1502 11.8067 40.4252 10.1967 41.0252 8.26091C39.4689 9.21925 37.7439 9.89008 35.9252 10.2734C34.4439 8.62508 32.3627 7.66675 30.0002 7.66675C25.5939 7.66675 21.9939 11.3467 21.9939 15.8892C21.9939 16.5409 22.0689 17.1734 22.2002 17.7676C15.5252 17.4226 9.58144 14.1451 5.6252 9.18091C4.93145 10.3884 4.5377 11.8067 4.5377 13.3017C4.5377 16.1576 5.94395 18.6876 8.11895 20.1251C6.78769 20.1251 5.5502 19.7417 4.4627 19.1667V19.2242C4.4627 23.2109 7.2377 26.5459 10.9127 27.2934C9.73281 27.6235 8.49412 27.6694 7.29395 27.4276C7.80321 29.0615 8.80058 30.4912 10.1459 31.5157C11.4911 32.5402 13.1167 33.108 14.7939 33.1393C11.9508 35.4401 8.42644 36.6838 4.8002 36.6659C4.1627 36.6659 3.5252 36.6276 2.8877 36.5509C6.4502 38.8892 10.6877 40.2501 15.2252 40.2501C30.0002 40.2501 38.1189 27.7151 38.1189 16.8476C38.1189 16.4834 38.1189 16.1384 38.1002 15.7742C39.6752 14.6242 41.0252 13.1676 42.1127 11.5001Z" fill="#00A66A"/>
</svg>
